<?xml version="1.0" encoding="iso-8859-1"?>
<!-- Generator: Adobe Illustrator 19.0.0, SVG Export Plug-In . SVG Version: 6.00 Build 0)  -->
<svg version="1.1" id="Capa_1" xmlns="http://www.w3.org/2000/svg" xmlns:xlink="http://www.w3.org/1999/xlink" x="0px" y="0px"
	 viewBox="0 0 58 58" style="enable-background:new 0 0 58 58;" xml:space="preserve">
<g>
	<path d="M29,0c-1.875,0-3.706,0.185-5.483,0.527L23.5,0.523l-0.195,0.039c-0.018,0.004-0.036,0.008-0.055,0.012
		c-0.172,0.035-0.341,0.076-0.512,0.114c-0.284,0.063-0.568,0.126-0.849,0.196c-0.152,0.038-0.301,0.081-0.452,0.122
		c-0.303,0.082-0.605,0.166-0.904,0.257c-0.125,0.038-0.249,0.079-0.374,0.119c-0.328,0.105-0.654,0.215-0.977,0.331
		c-0.095,0.034-0.19,0.069-0.285,0.104c-0.36,0.134-0.716,0.275-1.069,0.422c-0.058,0.024-0.116,0.048-0.174,0.073
		c-0.41,0.175-0.816,0.358-1.216,0.551c-0.001,0-0.001,0.001-0.002,0.001c-1.692,0.816-3.288,1.789-4.772,2.9
		c-0.007,0.005-0.015,0.011-0.022,0.017c-0.344,0.258-0.681,0.523-1.012,0.796c-0.057,0.047-0.114,0.095-0.171,0.143
		C10.185,6.95,9.913,7.186,9.645,7.427c-0.087,0.078-0.174,0.157-0.26,0.236C9.156,7.874,8.931,8.089,8.709,8.308
		C8.6,8.414,8.491,8.521,8.384,8.629c-0.186,0.189-0.368,0.382-0.55,0.577c-0.13,0.139-0.261,0.276-0.388,0.417
		c-0.129,0.144-0.254,0.292-0.38,0.439c-0.956,1.106-1.83,2.283-2.612,3.524c-0.004,0.007-0.009,0.014-0.013,0.021
		c-0.212,0.338-0.417,0.68-0.615,1.027c-0.006,0.011-0.013,0.023-0.02,0.034c-1.382,2.419-2.424,5.054-3.064,7.843
		c-0.022,0.094-0.045,0.188-0.065,0.283c-0.065,0.295-0.123,0.592-0.179,0.89C0.467,23.842,0.439,24,0.412,24.16
		c-0.044,0.261-0.085,0.522-0.122,0.786c-0.03,0.209-0.055,0.419-0.08,0.629c-0.027,0.228-0.054,0.455-0.076,0.684
		c-0.026,0.271-0.044,0.544-0.062,0.818c-0.012,0.179-0.027,0.357-0.036,0.537C0.013,28.073,0,28.535,0,29s0.013,0.927,0.035,1.387
		c0.008,0.18,0.024,0.358,0.036,0.537c0.018,0.273,0.037,0.546,0.062,0.818c0.022,0.229,0.049,0.456,0.076,0.684
		c0.025,0.21,0.051,0.42,0.08,0.629c0.037,0.263,0.078,0.525,0.122,0.786C0.439,34,0.467,34.158,0.497,34.317
		c0.056,0.298,0.114,0.595,0.179,0.89c0.021,0.095,0.044,0.189,0.065,0.283c0.64,2.788,1.682,5.423,3.064,7.843
		c0.006,0.011,0.013,0.023,0.02,0.034c0.199,0.347,0.403,0.689,0.615,1.027c0.004,0.007,0.009,0.014,0.013,0.021
		c0.782,1.241,1.656,2.419,2.612,3.524c0.126,0.146,0.251,0.295,0.38,0.439c0.127,0.141,0.259,0.279,0.388,0.417
		c0.181,0.194,0.363,0.387,0.55,0.577c0.107,0.108,0.216,0.214,0.325,0.321c0.222,0.218,0.447,0.433,0.676,0.645
		c0.086,0.079,0.173,0.158,0.26,0.236c0.267,0.241,0.54,0.476,0.816,0.707c0.057,0.047,0.113,0.095,0.171,0.143
		c0.331,0.272,0.668,0.538,1.012,0.796c0.007,0.005,0.015,0.011,0.022,0.017c1.484,1.111,3.08,2.085,4.772,2.9
		c0.001,0,0.001,0.001,0.002,0.001c0.4,0.193,0.807,0.376,1.217,0.551c0.056,0.024,0.113,0.047,0.17,0.071
		c0.354,0.148,0.711,0.289,1.071,0.423c0.095,0.035,0.189,0.07,0.284,0.104c0.323,0.116,0.649,0.226,0.977,0.331
		c0.125,0.04,0.249,0.081,0.374,0.119c0.299,0.091,0.601,0.176,0.904,0.257c0.151,0.041,0.3,0.083,0.452,0.122
		c0.281,0.071,0.565,0.134,0.849,0.196c0.171,0.038,0.34,0.079,0.512,0.114c0.018,0.004,0.036,0.009,0.055,0.012l0.195,0.039
		l0.017-0.003C25.294,57.815,27.125,58,29,58c15.991,0,29-13.01,29-29S44.991,0,29,0z M45,29c0,12.769-9.029,23.854-21.498,26.436
		c-0.019-0.004-0.037-0.009-0.055-0.013c-0.686-0.144-1.359-0.319-2.024-0.513c-0.108-0.032-0.218-0.06-0.326-0.093
		c-0.618-0.189-1.224-0.405-1.821-0.636c-0.171-0.066-0.343-0.133-0.512-0.202c-0.56-0.23-1.109-0.477-1.648-0.742
		c-0.184-0.091-0.366-0.186-0.548-0.281c-0.529-0.276-1.051-0.562-1.558-0.87c-0.15-0.091-0.295-0.19-0.444-0.285
		c-0.437-0.278-0.866-0.567-1.285-0.869c-0.134-0.096-0.27-0.188-0.402-0.286c-0.493-0.368-0.969-0.757-1.434-1.157
		c-0.127-0.109-0.254-0.217-0.379-0.329c-0.473-0.422-0.931-0.859-1.372-1.312c-0.084-0.087-0.167-0.175-0.25-0.262
		c-0.471-0.497-0.929-1.007-1.362-1.538c-0.007-0.009-0.014-0.019-0.022-0.028C7.112,44.853,6.261,43.61,5.517,42.3
		c-0.001-0.002-0.003-0.005-0.004-0.007c-1.477-2.603-2.527-5.465-3.075-8.481c-0.013-0.074-0.027-0.147-0.04-0.221
		c-0.121-0.696-0.214-1.4-0.28-2.111c-0.009-0.096-0.014-0.193-0.022-0.29C2.037,30.465,2,29.736,2,29s0.037-1.465,0.096-2.188
		c0.008-0.097,0.013-0.194,0.022-0.29c0.066-0.711,0.159-1.415,0.28-2.111c0.013-0.074,0.026-0.147,0.04-0.221
		c0.548-3.017,1.599-5.879,3.075-8.481c0.001-0.002,0.003-0.005,0.004-0.007c0.744-1.31,1.595-2.553,2.542-3.719
		c0.007-0.009,0.014-0.019,0.022-0.028c0.432-0.531,0.89-1.041,1.362-1.538c0.083-0.088,0.166-0.176,0.25-0.262
		c0.441-0.453,0.9-0.89,1.372-1.312c0.125-0.111,0.252-0.22,0.379-0.329c0.465-0.4,0.941-0.789,1.434-1.157
		c0.132-0.098,0.268-0.19,0.402-0.286c0.419-0.302,0.848-0.591,1.285-0.869c0.148-0.094,0.293-0.193,0.444-0.285
		c0.507-0.309,1.029-0.595,1.558-0.87c0.182-0.095,0.364-0.19,0.548-0.281c0.539-0.265,1.089-0.513,1.648-0.742
		c0.17-0.07,0.341-0.136,0.512-0.202c0.597-0.231,1.203-0.447,1.821-0.636c0.108-0.033,0.218-0.061,0.326-0.093
		c0.664-0.194,1.338-0.369,2.024-0.513c0.019-0.004,0.037-0.009,0.055-0.013C35.971,5.146,45,16.231,45,29z M29,56
		c-0.128,0-0.255-0.008-0.382-0.01C39.516,51.699,47,41.047,47,29c0-6.81-2.394-13.171-6.441-18.193C40.819,10.627,41,10.341,41,10
		c0-0.552-0.448-1-1-1c-0.289,0-0.544,0.126-0.726,0.322c-0.834-0.903-1.724-1.753-2.668-2.546C36.84,6.593,37,6.32,37,6
		c0-0.552-0.448-1-1-1c-0.402,0-0.744,0.241-0.903,0.583c-1.977-1.45-4.151-2.656-6.479-3.574C28.745,2.008,28.872,2,29,2
		c5.128,0,9.926,1.438,14.014,3.93C43.012,5.954,43,5.975,43,6c0,0.552,0.448,1,1,1c0.166,0,0.315-0.05,0.453-0.121
		c1.028,0.72,2.003,1.508,2.92,2.361C47.15,9.423,47,9.689,47,10c0,0.552,0.448,1,1,1c0.311,0,0.577-0.15,0.761-0.372
		c0.852,0.916,1.641,1.892,2.361,2.92C51.05,13.685,51,13.834,51,14c0,0.552,0.448,1,1,1c0.025,0,0.046-0.012,0.07-0.014
		c1.842,3.021,3.104,6.43,3.639,10.073C55.302,25.185,55,25.551,55,26c0,0.523,0.406,0.939,0.917,0.983
		C55.966,27.65,56,28.321,56,29c0,1.38-0.105,2.737-0.306,4.062C55.294,33.193,55,33.556,55,34c0,0.312,0.151,0.579,0.375,0.762
		C52.727,46.89,41.91,56,29,56z"/>
	<circle cx="40" cy="50" r="1"/>
	<circle cx="36" cy="54" r="1"/>
	<circle cx="44" cy="14" r="1"/>
	<circle cx="48" cy="18" r="1"/>
	<circle cx="48" cy="26" r="1"/>
	<circle cx="48" cy="34" r="1"/>
	<circle cx="48" cy="42" r="1"/>
	<circle cx="44" cy="46" r="1"/>
	<circle cx="52" cy="22" r="1"/>
	<circle cx="52" cy="30" r="1"/>
	<circle cx="52" cy="38" r="1"/>
</g>
<g>
</g>
<g>
</g>
<g>
</g>
<g>
</g>
<g>
</g>
<g>
</g>
<g>
</g>
<g>
</g>
<g>
</g>
<g>
</g>
<g>
</g>
<g>
</g>
<g>
</g>
<g>
</g>
<g>
</g>
</svg>
